# xmcd
#
# Track frame offsets:
#	180
#	16321
#	30601
#	51992
#	69893
#	84874
#	106847
#	119734
#	138677
#
# Disc length: 2080 seconds
#
# Revision: 4
# Processed by: cddbd v1.5.2PL0 Copyright (c) Steve Scherf et al.
# Submitted via: audiograbber 1.83.01
#
DISCID=73081e09
DTITLE=Various Artist - New Country - Volume 4 - Number 5
DYEAR=1997
DGENRE=Country
TTITLE0=Alison Krauss and Union Station - Find My Way Back To My Heart
TTITLE1=Jamie Warren - Fallen Angel
TTITLE2=Tanya Tucker - All I Have To Offer You Is Love
TTITLE3=Bryan Smith - Jack Of All Trades
TTITLE4=Jimmy LaFave - Heart Of A Woman
TTITLE5=Kate Campbell - Galaxie 500
TTITLE6=Slaid Cleaves - No Angel Knows
TTITLE7=Bad Livers - Counting The Crossties
TTITLE8=The Backsliders - Throwin' Rocks At The Moon
EXTD=
EXTT0=
EXTT1=
EXTT2=
EXTT3=
EXTT4=
EXTT5=
EXTT6=
EXTT7=
EXTT8=
PLAYORDER=
